<mxfile host="Electron" agent="Mozilla/5.0 (Windows NT 10.0; Win64; x64) AppleWebKit/537.36 (KHTML, like Gecko) draw.io/25.0.1 Chrome/128.0.6613.186 Electron/32.2.6 Safari/537.36" version="25.0.1">
  <diagram name="Page-1" id="c4acf3e9-155e-7222-9cf6-157b1a14988f">
    <mxGraphModel dx="2060" dy="1240" grid="1" gridSize="10" guides="1" tooltips="1" connect="1" arrows="1" fold="1" page="1" pageScale="1" pageWidth="850" pageHeight="1100" background="none" math="0" shadow="0">
      <root>
        <mxCell id="0" />
        <mxCell id="1" parent="0" />
        <mxCell id="izcVjjxiA3LGryd4fkN5-3" style="edgeStyle=none;curved=1;rounded=0;orthogonalLoop=1;jettySize=auto;html=1;entryX=0.5;entryY=0;entryDx=0;entryDy=0;fontSize=12;startSize=8;endSize=8;" parent="1" source="5d2195bd80daf111-18" target="izcVjjxiA3LGryd4fkN5-2" edge="1">
          <mxGeometry relative="1" as="geometry" />
        </mxCell>
        <mxCell id="5d2195bd80daf111-18" value="&lt;p style=&quot;margin:0px;margin-top:4px;text-align:center;&quot;&gt;&lt;b&gt;ShadowSimpleAttributeDefinition&amp;lt;T&amp;gt; [Impl]&lt;/b&gt;&lt;/p&gt;&lt;hr size=&quot;1&quot;&gt;&lt;p style=&quot;margin:0px;margin-left:4px;&quot;&gt;&lt;br&gt;&lt;/p&gt;" style="verticalAlign=top;align=left;overflow=fill;fontSize=12;fontFamily=Helvetica;html=1;rounded=0;shadow=0;comic=0;labelBackgroundColor=none;strokeWidth=1" parent="1" vertex="1">
          <mxGeometry y="630" width="270" height="140" as="geometry" />
        </mxCell>
        <mxCell id="izcVjjxiA3LGryd4fkN5-1" value="&lt;p style=&quot;margin:0px;margin-top:4px;text-align:center;&quot;&gt;&lt;b&gt;ShadowAssociationDefinition [Impl]&lt;/b&gt;&lt;/p&gt;&lt;hr size=&quot;1&quot;&gt;&lt;p style=&quot;margin:0px;margin-left:4px;&quot;&gt;itemName&lt;/p&gt;&lt;p style=&quot;margin:0px;margin-left:4px;&quot;&gt;associationTypeName&lt;/p&gt;&lt;p style=&quot;margin:0px;margin-left:4px;&quot;&gt;referenceAttributeDefinition&lt;/p&gt;&lt;p style=&quot;margin:0px;margin-left:4px;&quot;&gt;associationDataObjectDefinition&lt;/p&gt;&lt;p style=&quot;margin:0px;margin-left:4px;&quot;&gt;modernAssociationDefinitionBean&lt;/p&gt;&lt;p style=&quot;margin:0px;margin-left:4px;&quot;&gt;modernAssociationTypeDefinitionBean&lt;/p&gt;&lt;p style=&quot;margin:0px;margin-left:4px;&quot;&gt;legacyInformation&lt;/p&gt;&lt;p style=&quot;margin:0px;margin-left:4px;&quot;&gt;objectParticipantMap [QName -&amp;nbsp;ShadowRelationParticipantType*]&lt;/p&gt;&lt;p style=&quot;margin:0px;margin-left:4px;&quot;&gt;maxOccurs&lt;/p&gt;&lt;p style=&quot;margin:0px;margin-left:4px;&quot;&gt;complexTypeInformation&lt;/p&gt;" style="verticalAlign=top;align=left;overflow=fill;fontSize=12;fontFamily=Helvetica;html=1;rounded=0;shadow=0;comic=0;labelBackgroundColor=none;strokeWidth=1" parent="1" vertex="1">
          <mxGeometry x="885" y="605" width="360" height="190" as="geometry" />
        </mxCell>
        <mxCell id="izcVjjxiA3LGryd4fkN5-2" value="&lt;p style=&quot;margin:0px;margin-top:4px;text-align:center;&quot;&gt;&lt;b&gt;NativeShadowAttributeDefinition&amp;lt;T&amp;gt;&lt;/b&gt;&lt;/p&gt;&lt;hr size=&quot;1&quot;&gt;&lt;p style=&quot;margin:0px;margin-left:4px;&quot;&gt;&lt;br&gt;&lt;/p&gt;" style="verticalAlign=top;align=left;overflow=fill;fontSize=12;fontFamily=Helvetica;html=1;rounded=0;shadow=0;comic=0;labelBackgroundColor=none;strokeWidth=1" parent="1" vertex="1">
          <mxGeometry x="20" y="1410" width="230" height="140" as="geometry" />
        </mxCell>
        <mxCell id="izcVjjxiA3LGryd4fkN5-4" value="&lt;p style=&quot;margin:0px;margin-top:4px;text-align:center;&quot;&gt;&lt;b&gt;NativeShadowReferenceAttributeDefinition&lt;/b&gt;&lt;/p&gt;&lt;hr size=&quot;1&quot;&gt;&lt;p style=&quot;margin:0px;margin-left:4px;&quot;&gt;&lt;br&gt;&lt;/p&gt;" style="verticalAlign=top;align=left;overflow=fill;fontSize=12;fontFamily=Helvetica;html=1;rounded=0;shadow=0;comic=0;labelBackgroundColor=none;strokeWidth=1" parent="1" vertex="1">
          <mxGeometry x="360" y="1410" width="270" height="140" as="geometry" />
        </mxCell>
        <mxCell id="izcVjjxiA3LGryd4fkN5-6" value="&lt;p style=&quot;margin:0px;margin-top:4px;text-align:center;&quot;&gt;&lt;b&gt;PrismPropertyDefinition&amp;lt;T&amp;gt;&lt;/b&gt;&lt;/p&gt;&lt;hr size=&quot;1&quot;&gt;&lt;p style=&quot;margin:0px;margin-left:4px;&quot;&gt;&lt;br&gt;&lt;/p&gt;" style="verticalAlign=top;align=left;overflow=fill;fontSize=12;fontFamily=Helvetica;html=1;rounded=0;shadow=0;comic=0;labelBackgroundColor=none;strokeWidth=1" parent="1" vertex="1">
          <mxGeometry x="40" y="80" width="190" height="140" as="geometry" />
        </mxCell>
        <mxCell id="izcVjjxiA3LGryd4fkN5-7" value="&lt;p style=&quot;margin:0px;margin-top:4px;text-align:center;&quot;&gt;&lt;b&gt;PrismContainerDefinition&amp;lt;ShadowAssociationValueType&amp;gt;&lt;/b&gt;&lt;/p&gt;&lt;hr size=&quot;1&quot;&gt;&lt;p style=&quot;margin:0px;margin-left:4px;&quot;&gt;&lt;br&gt;&lt;/p&gt;" style="verticalAlign=top;align=left;overflow=fill;fontSize=12;fontFamily=Helvetica;html=1;rounded=0;shadow=0;comic=0;labelBackgroundColor=none;strokeWidth=1" parent="1" vertex="1">
          <mxGeometry x="885" y="80" width="370" height="140" as="geometry" />
        </mxCell>
        <mxCell id="izcVjjxiA3LGryd4fkN5-8" value="&lt;p style=&quot;margin:0px;margin-top:4px;text-align:center;&quot;&gt;&lt;b&gt;ShadowItemDefinition&amp;lt;...&amp;gt;&lt;/b&gt;&lt;/p&gt;&lt;hr size=&quot;1&quot;&gt;&lt;p style=&quot;margin:0px;margin-left:4px;&quot;&gt;&lt;br&gt;&lt;/p&gt;" style="verticalAlign=top;align=left;overflow=fill;fontSize=12;fontFamily=Helvetica;html=1;rounded=0;shadow=0;comic=0;labelBackgroundColor=none;strokeWidth=1" parent="1" vertex="1">
          <mxGeometry x="470" y="80" width="190" height="140" as="geometry" />
        </mxCell>
        <mxCell id="izcVjjxiA3LGryd4fkN5-10" value="" style="endArrow=block;endSize=16;endFill=0;html=1;rounded=0;fontSize=12;exitX=0.5;exitY=0;exitDx=0;exitDy=0;entryX=0.5;entryY=1;entryDx=0;entryDy=0;" parent="1" source="5d2195bd80daf111-18" target="izcVjjxiA3LGryd4fkN5-6" edge="1">
          <mxGeometry width="160" relative="1" as="geometry">
            <mxPoint x="340" y="640" as="sourcePoint" />
            <mxPoint x="500" y="640" as="targetPoint" />
          </mxGeometry>
        </mxCell>
        <mxCell id="izcVjjxiA3LGryd4fkN5-11" value="" style="endArrow=block;endSize=16;endFill=0;html=1;rounded=0;fontSize=12;exitX=0.5;exitY=0;exitDx=0;exitDy=0;entryX=0.25;entryY=1;entryDx=0;entryDy=0;" parent="1" source="ONyjDwBXwkYlP4Lr9STu-7" target="izcVjjxiA3LGryd4fkN5-8" edge="1">
          <mxGeometry width="160" relative="1" as="geometry">
            <mxPoint x="165" y="490" as="sourcePoint" />
            <mxPoint x="165" y="410" as="targetPoint" />
          </mxGeometry>
        </mxCell>
        <mxCell id="izcVjjxiA3LGryd4fkN5-12" value="" style="endArrow=block;endSize=16;endFill=0;html=1;rounded=0;fontSize=12;exitX=0.25;exitY=0;exitDx=0;exitDy=0;entryX=0.75;entryY=1;entryDx=0;entryDy=0;" parent="1" source="izcVjjxiA3LGryd4fkN5-1" target="izcVjjxiA3LGryd4fkN5-8" edge="1">
          <mxGeometry width="160" relative="1" as="geometry">
            <mxPoint x="290" y="530" as="sourcePoint" />
            <mxPoint x="423" y="280" as="targetPoint" />
          </mxGeometry>
        </mxCell>
        <mxCell id="izcVjjxiA3LGryd4fkN5-13" value="" style="endArrow=block;endSize=16;endFill=0;html=1;rounded=0;fontSize=12;exitX=0.5;exitY=0;exitDx=0;exitDy=0;entryX=0.5;entryY=1;entryDx=0;entryDy=0;" parent="1" source="izcVjjxiA3LGryd4fkN5-1" target="izcVjjxiA3LGryd4fkN5-7" edge="1">
          <mxGeometry width="160" relative="1" as="geometry">
            <mxPoint x="165" y="490" as="sourcePoint" />
            <mxPoint x="165" y="410" as="targetPoint" />
          </mxGeometry>
        </mxCell>
        <mxCell id="ONyjDwBXwkYlP4Lr9STu-1" value="&lt;p style=&quot;margin:0px;margin-top:4px;text-align:center;&quot;&gt;&lt;b&gt;ShadowReferenceAttributeDefinition [Impl]&lt;/b&gt;&lt;/p&gt;&lt;hr size=&quot;1&quot;&gt;&lt;p style=&quot;margin:0px;margin-left:4px;&quot;&gt;&lt;span style=&quot;background-color: initial;&quot;&gt;referenceTypeDefinition&lt;/span&gt;&lt;br&gt;&lt;/p&gt;" style="verticalAlign=top;align=left;overflow=fill;fontSize=12;fontFamily=Helvetica;html=1;rounded=0;shadow=0;comic=0;labelBackgroundColor=none;strokeWidth=1" vertex="1" parent="1">
          <mxGeometry x="287.5" y="630" width="355" height="140" as="geometry" />
        </mxCell>
        <mxCell id="ONyjDwBXwkYlP4Lr9STu-2" value="referenceAttributeDefinition" style="edgeStyle=none;curved=1;rounded=0;orthogonalLoop=1;jettySize=auto;html=1;entryX=1;entryY=0.5;entryDx=0;entryDy=0;fontSize=12;startSize=8;endSize=8;exitX=0;exitY=0.5;exitDx=0;exitDy=0;" edge="1" parent="1" source="izcVjjxiA3LGryd4fkN5-1" target="ONyjDwBXwkYlP4Lr9STu-1">
          <mxGeometry x="-0.2692" y="-10" relative="1" as="geometry">
            <mxPoint x="159" y="630" as="sourcePoint" />
            <mxPoint x="135" y="930" as="targetPoint" />
            <mxPoint as="offset" />
          </mxGeometry>
        </mxCell>
        <mxCell id="ONyjDwBXwkYlP4Lr9STu-3" value="&lt;p style=&quot;margin:0px;margin-top:4px;text-align:center;&quot;&gt;&lt;b&gt;AbstractShadowReferenceTypeDefinition&lt;/b&gt;&lt;br&gt;&lt;/p&gt;&lt;hr size=&quot;1&quot;&gt;&lt;p style=&quot;margin:0px;margin-left:4px;&quot;&gt;localName&lt;/p&gt;&lt;p style=&quot;margin:0px;margin-left:4px;&quot;&gt;getSubjectTypes()*&lt;/p&gt;&lt;p style=&quot;margin:0px;margin-left:4px;&quot;&gt;getObjectTypes()*&lt;/p&gt;&lt;p style=&quot;margin:0px;margin-left:4px;&quot;&gt;generalizedObjectSideObjectDefinition&lt;/p&gt;" style="verticalAlign=top;align=left;overflow=fill;fontSize=12;fontFamily=Helvetica;html=1;rounded=0;shadow=0;comic=0;labelBackgroundColor=none;strokeWidth=1" vertex="1" parent="1">
          <mxGeometry x="320" y="920" width="290" height="100" as="geometry" />
        </mxCell>
        <mxCell id="ONyjDwBXwkYlP4Lr9STu-4" value="referenceTypeDefinition" style="endArrow=classic;html=1;rounded=0;fontSize=12;startSize=8;endSize=8;curved=1;exitX=0.5;exitY=1;exitDx=0;exitDy=0;entryX=0.5;entryY=0;entryDx=0;entryDy=0;" edge="1" parent="1" source="ONyjDwBXwkYlP4Lr9STu-1" target="ONyjDwBXwkYlP4Lr9STu-3">
          <mxGeometry x="-0.654" y="13" width="50" height="50" relative="1" as="geometry">
            <mxPoint x="820" y="660" as="sourcePoint" />
            <mxPoint x="870" y="610" as="targetPoint" />
            <mxPoint y="1" as="offset" />
          </mxGeometry>
        </mxCell>
        <mxCell id="ONyjDwBXwkYlP4Lr9STu-5" value="&lt;p style=&quot;margin:0px;margin-top:4px;text-align:center;&quot;&gt;&lt;b&gt;ShadowRelationParticipantType&lt;/b&gt;&lt;br&gt;&lt;/p&gt;&lt;hr size=&quot;1&quot;&gt;&lt;p style=&quot;margin:0px;margin-left:4px;&quot;&gt;typeIdentification [0..1]&lt;/p&gt;&lt;p style=&quot;margin:0px;margin-left:4px;&quot;&gt;objectDefinition&amp;nbsp;&lt;/p&gt;" style="verticalAlign=top;align=left;overflow=fill;fontSize=12;fontFamily=Helvetica;html=1;rounded=0;shadow=0;comic=0;labelBackgroundColor=none;strokeWidth=1" vertex="1" parent="1">
          <mxGeometry x="860" y="870" width="230" height="70" as="geometry" />
        </mxCell>
        <mxCell id="ONyjDwBXwkYlP4Lr9STu-6" value="objectParticipantMap" style="endArrow=classic;html=1;rounded=0;fontSize=12;startSize=8;endSize=8;curved=1;exitX=0.25;exitY=1;exitDx=0;exitDy=0;entryX=0.5;entryY=0;entryDx=0;entryDy=0;" edge="1" parent="1" source="izcVjjxiA3LGryd4fkN5-1" target="ONyjDwBXwkYlP4Lr9STu-5">
          <mxGeometry x="-0.6208" y="1" width="50" height="50" relative="1" as="geometry">
            <mxPoint x="760" y="730" as="sourcePoint" />
            <mxPoint x="810" y="680" as="targetPoint" />
            <mxPoint as="offset" />
          </mxGeometry>
        </mxCell>
        <mxCell id="ONyjDwBXwkYlP4Lr9STu-7" value="&lt;p style=&quot;margin:0px;margin-top:4px;text-align:center;&quot;&gt;&lt;b&gt;ShadowAttributeDefinition&amp;lt;...&amp;gt; [Impl]&lt;/b&gt;&lt;/p&gt;&lt;hr size=&quot;1&quot;&gt;&lt;p style=&quot;margin:0px;margin-left:4px;&quot;&gt;&lt;br&gt;&lt;/p&gt;" style="verticalAlign=top;align=left;overflow=fill;fontSize=12;fontFamily=Helvetica;html=1;rounded=0;shadow=0;comic=0;labelBackgroundColor=none;strokeWidth=1" vertex="1" parent="1">
          <mxGeometry x="250" y="370" width="290" height="140" as="geometry" />
        </mxCell>
        <mxCell id="ONyjDwBXwkYlP4Lr9STu-8" value="" style="endArrow=block;endSize=16;endFill=0;html=1;rounded=0;fontSize=12;curved=1;exitX=0.716;exitY=0;exitDx=0;exitDy=0;entryX=0.25;entryY=1;entryDx=0;entryDy=0;exitPerimeter=0;" edge="1" parent="1" source="5d2195bd80daf111-18" target="ONyjDwBXwkYlP4Lr9STu-7">
          <mxGeometry width="160" relative="1" as="geometry">
            <mxPoint x="670" y="670" as="sourcePoint" />
            <mxPoint x="830" y="670" as="targetPoint" />
          </mxGeometry>
        </mxCell>
        <mxCell id="ONyjDwBXwkYlP4Lr9STu-9" value="" style="endArrow=block;endSize=16;endFill=0;html=1;rounded=0;fontSize=12;curved=1;exitX=0.5;exitY=0;exitDx=0;exitDy=0;entryX=0.75;entryY=1;entryDx=0;entryDy=0;" edge="1" parent="1" source="ONyjDwBXwkYlP4Lr9STu-1" target="ONyjDwBXwkYlP4Lr9STu-7">
          <mxGeometry width="160" relative="1" as="geometry">
            <mxPoint x="230" y="710" as="sourcePoint" />
            <mxPoint x="385" y="560" as="targetPoint" />
          </mxGeometry>
        </mxCell>
        <mxCell id="ONyjDwBXwkYlP4Lr9STu-12" value="subjectTypes, objectTypes" style="endArrow=classic;html=1;rounded=1;fontSize=12;startSize=8;endSize=8;curved=0;exitX=0.774;exitY=0;exitDx=0;exitDy=0;exitPerimeter=0;entryX=0;entryY=0.5;entryDx=0;entryDy=0;" edge="1" parent="1" source="ONyjDwBXwkYlP4Lr9STu-18" target="ONyjDwBXwkYlP4Lr9STu-5">
          <mxGeometry x="-0.9266" y="-10" width="50" height="50" relative="1" as="geometry">
            <mxPoint x="720" y="700" as="sourcePoint" />
            <mxPoint x="770" y="650" as="targetPoint" />
            <Array as="points">
              <mxPoint x="430" y="1050" />
              <mxPoint x="720" y="1050" />
              <mxPoint x="720" y="905" />
            </Array>
            <mxPoint as="offset" />
          </mxGeometry>
        </mxCell>
        <mxCell id="ONyjDwBXwkYlP4Lr9STu-18" value="&lt;p style=&quot;margin:0px;margin-top:4px;text-align:center;&quot;&gt;&lt;span style=&quot;font-weight: 700; text-wrap: wrap;&quot;&gt;NativelyProvidedShadowReferenceTypeDefinition&lt;/span&gt;&lt;br&gt;&lt;/p&gt;&lt;hr size=&quot;1&quot;&gt;&lt;p style=&quot;margin:0px;margin-left:4px;&quot;&gt;nativeTypeDef&lt;/p&gt;&lt;p style=&quot;margin:0px;margin-left:4px;&quot;&gt;subjectTypes*&lt;/p&gt;&lt;p style=&quot;margin:0px;margin-left:4px;&quot;&gt;objectTypes*&lt;/p&gt;&lt;p style=&quot;margin:0px;margin-left:4px;&quot;&gt;&lt;br&gt;&lt;/p&gt;" style="verticalAlign=top;align=left;overflow=fill;fontSize=12;fontFamily=Helvetica;html=1;rounded=0;shadow=0;comic=0;labelBackgroundColor=none;strokeWidth=1" vertex="1" parent="1">
          <mxGeometry x="190" y="1100" width="310" height="80" as="geometry" />
        </mxCell>
        <mxCell id="ONyjDwBXwkYlP4Lr9STu-19" value="" style="endArrow=block;endSize=16;endFill=0;html=1;rounded=0;fontSize=12;curved=1;exitX=0.5;exitY=0;exitDx=0;exitDy=0;entryX=0.25;entryY=1;entryDx=0;entryDy=0;" edge="1" parent="1" source="ONyjDwBXwkYlP4Lr9STu-18" target="ONyjDwBXwkYlP4Lr9STu-3">
          <mxGeometry width="160" relative="1" as="geometry">
            <mxPoint x="203" y="640" as="sourcePoint" />
            <mxPoint x="333" y="520" as="targetPoint" />
          </mxGeometry>
        </mxCell>
        <mxCell id="ONyjDwBXwkYlP4Lr9STu-20" value="&lt;p style=&quot;margin:0px;margin-top:4px;text-align:center;&quot;&gt;&lt;span style=&quot;text-wrap: wrap;&quot;&gt;&lt;b&gt;SimulatedShadowReferenceTypeDefinition&lt;/b&gt;&lt;/span&gt;&lt;br&gt;&lt;/p&gt;&lt;hr size=&quot;1&quot;&gt;&lt;p style=&quot;margin:0px;margin-left:4px;&quot;&gt;localSubjectItemName&lt;/p&gt;&lt;p style=&quot;margin:0px;margin-left:4px;&quot;&gt;primaryAttributeBinding&lt;/p&gt;&lt;p style=&quot;margin:0px;margin-left:4px;&quot;&gt;secondaryAttributeBinding&lt;/p&gt;&lt;p style=&quot;margin:0px;margin-left:4px;&quot;&gt;primaryBindingMatchingRuleLegacy&lt;/p&gt;&lt;p style=&quot;margin:0px;margin-left:4px;&quot;&gt;direction&lt;/p&gt;&lt;p style=&quot;margin:0px;margin-left:4px;&quot;&gt;requiresExplicitReferentialIntegrity&lt;/p&gt;&lt;p style=&quot;margin:0px;margin-left:4px;&quot;&gt;&lt;span style=&quot;background-color: initial;&quot;&gt;subjectSidePrimaryBindingAttributeDefinition&lt;/span&gt;&lt;br&gt;&lt;/p&gt;&lt;p style=&quot;margin:0px;margin-left:4px;&quot;&gt;subjects*&lt;/p&gt;&lt;p style=&quot;margin:0px;margin-left:4px;&quot;&gt;objects*&lt;/p&gt;&lt;p style=&quot;margin:0px;margin-left:4px;&quot;&gt;&lt;br&gt;&lt;/p&gt;" style="verticalAlign=top;align=left;overflow=fill;fontSize=12;fontFamily=Helvetica;html=1;rounded=0;shadow=0;comic=0;labelBackgroundColor=none;strokeWidth=1" vertex="1" parent="1">
          <mxGeometry x="530" y="1100" width="310" height="170" as="geometry" />
        </mxCell>
        <mxCell id="ONyjDwBXwkYlP4Lr9STu-21" value="&lt;p style=&quot;margin:0px;margin-top:4px;text-align:center;&quot;&gt;&lt;b&gt;Legacy&lt;/b&gt;&lt;/p&gt;&lt;hr size=&quot;1&quot;&gt;&lt;p style=&quot;margin:0px;margin-left:4px;&quot;&gt;&lt;br&gt;&lt;/p&gt;" style="verticalAlign=top;align=left;overflow=fill;fontSize=12;fontFamily=Helvetica;html=1;rounded=0;shadow=0;comic=0;labelBackgroundColor=none;strokeWidth=1" vertex="1" parent="1">
          <mxGeometry x="570" y="1330" width="60" height="40" as="geometry" />
        </mxCell>
        <mxCell id="ONyjDwBXwkYlP4Lr9STu-22" value="&lt;p style=&quot;margin:0px;margin-top:4px;text-align:center;&quot;&gt;&lt;b&gt;Modern&lt;/b&gt;&lt;/p&gt;&lt;hr size=&quot;1&quot;&gt;&lt;p style=&quot;margin:0px;margin-left:4px;&quot;&gt;&lt;br&gt;&lt;/p&gt;" style="verticalAlign=top;align=left;overflow=fill;fontSize=12;fontFamily=Helvetica;html=1;rounded=0;shadow=0;comic=0;labelBackgroundColor=none;strokeWidth=1" vertex="1" parent="1">
          <mxGeometry x="740" y="1330" width="60" height="40" as="geometry" />
        </mxCell>
        <mxCell id="ONyjDwBXwkYlP4Lr9STu-23" value="" style="endArrow=block;endSize=16;endFill=0;html=1;rounded=0;fontSize=12;curved=1;exitX=0.5;exitY=0;exitDx=0;exitDy=0;entryX=0.75;entryY=1;entryDx=0;entryDy=0;" edge="1" parent="1" source="ONyjDwBXwkYlP4Lr9STu-20" target="ONyjDwBXwkYlP4Lr9STu-3">
          <mxGeometry width="160" relative="1" as="geometry">
            <mxPoint x="355" y="1110" as="sourcePoint" />
            <mxPoint x="403" y="1010" as="targetPoint" />
          </mxGeometry>
        </mxCell>
        <mxCell id="ONyjDwBXwkYlP4Lr9STu-24" value="" style="endArrow=block;endSize=16;endFill=0;html=1;rounded=0;fontSize=12;curved=1;exitX=0.5;exitY=0;exitDx=0;exitDy=0;entryX=0.25;entryY=1;entryDx=0;entryDy=0;" edge="1" parent="1" source="ONyjDwBXwkYlP4Lr9STu-21" target="ONyjDwBXwkYlP4Lr9STu-20">
          <mxGeometry width="160" relative="1" as="geometry">
            <mxPoint x="365" y="1120" as="sourcePoint" />
            <mxPoint x="413" y="1020" as="targetPoint" />
          </mxGeometry>
        </mxCell>
        <mxCell id="ONyjDwBXwkYlP4Lr9STu-25" value="" style="endArrow=block;endSize=16;endFill=0;html=1;rounded=0;fontSize=12;curved=1;exitX=0.5;exitY=0;exitDx=0;exitDy=0;entryX=0.75;entryY=1;entryDx=0;entryDy=0;" edge="1" parent="1" source="ONyjDwBXwkYlP4Lr9STu-22" target="ONyjDwBXwkYlP4Lr9STu-20">
          <mxGeometry width="160" relative="1" as="geometry">
            <mxPoint x="610" y="1340" as="sourcePoint" />
            <mxPoint x="618" y="1290" as="targetPoint" />
          </mxGeometry>
        </mxCell>
        <mxCell id="ONyjDwBXwkYlP4Lr9STu-26" value="&lt;p style=&quot;margin:0px;margin-top:4px;text-align:center;&quot;&gt;&lt;b&gt;SimulatedReferenceTypeParticipantDefinition&lt;/b&gt;&lt;br&gt;&lt;/p&gt;&lt;hr size=&quot;1&quot;&gt;&lt;p style=&quot;margin:0px;margin-left:4px;&quot;&gt;delineation :&amp;nbsp;ResourceObjectSetDelineation&lt;/p&gt;&lt;p style=&quot;margin:0px;margin-left:4px;&quot;&gt;participantType&lt;/p&gt;&lt;p style=&quot;margin:0px;margin-left:4px;&quot;&gt;auxiliaryObjectClassName (extra)&lt;/p&gt;&lt;p style=&quot;margin:0px;margin-left:4px;&quot;&gt;objectDefinition (participant def + extra aux object class)&lt;/p&gt;&lt;p style=&quot;margin:0px;margin-left:4px;&quot;&gt;&lt;br&gt;&lt;/p&gt;" style="verticalAlign=top;align=left;overflow=fill;fontSize=12;fontFamily=Helvetica;html=1;rounded=0;shadow=0;comic=0;labelBackgroundColor=none;strokeWidth=1" vertex="1" parent="1">
          <mxGeometry x="940" y="1137.5" width="310" height="95" as="geometry" />
        </mxCell>
        <mxCell id="ONyjDwBXwkYlP4Lr9STu-27" value="participantType" style="endArrow=classic;html=1;rounded=0;fontSize=12;startSize=8;endSize=8;curved=1;entryX=0.5;entryY=1;entryDx=0;entryDy=0;exitX=0.5;exitY=0;exitDx=0;exitDy=0;" edge="1" parent="1" source="ONyjDwBXwkYlP4Lr9STu-26" target="ONyjDwBXwkYlP4Lr9STu-5">
          <mxGeometry x="-0.8295" y="-7" width="50" height="50" relative="1" as="geometry">
            <mxPoint x="720" y="1030" as="sourcePoint" />
            <mxPoint x="770" y="980" as="targetPoint" />
            <mxPoint as="offset" />
          </mxGeometry>
        </mxCell>
        <mxCell id="ONyjDwBXwkYlP4Lr9STu-28" value="subjects, &lt;br&gt;objects" style="endArrow=classic;html=1;rounded=0;fontSize=12;startSize=8;endSize=8;curved=1;exitX=1;exitY=0.5;exitDx=0;exitDy=0;entryX=0;entryY=0.5;entryDx=0;entryDy=0;" edge="1" parent="1" source="ONyjDwBXwkYlP4Lr9STu-20" target="ONyjDwBXwkYlP4Lr9STu-26">
          <mxGeometry width="50" height="50" relative="1" as="geometry">
            <mxPoint x="720" y="1030" as="sourcePoint" />
            <mxPoint x="770" y="980" as="targetPoint" />
          </mxGeometry>
        </mxCell>
      </root>
    </mxGraphModel>
  </diagram>
</mxfile>
